<svg width="269" height="63" viewBox="0 0 269 63" fill="none" xmlns="http://www.w3.org/2000/svg">
<path d="M52.3826 26.129C52.3826 33.1373 49.6168 39.5011 45.1149 44.1935C40.3469 49.1632 26.1913 62.9838 26.1913 62.9838C26.1913 62.9838 12.0357 49.1632 7.2677 44.1935C2.76572 39.5011 0 33.1373 0 26.129C0 11.6984 11.7262 0 26.1913 0C40.6563 0 52.3826 11.6984 52.3826 26.129Z" fill="#D2D6E3"/>
<path d="M67.694 18.5412V12.249H72.7301C73.3111 12.249 73.776 12.4233 74.144 12.7911C74.4927 13.159 74.667 13.643 74.667 14.2819V16.4116C74.667 17.1473 74.88 17.7087 75.2868 18.1153C75.6936 18.5219 76.2553 18.7348 76.9913 18.7348H77.5724V17.8636H76.9913C76.0809 17.8636 75.6354 17.3796 75.6354 16.4116V14.2819C75.6354 13.7204 75.5386 13.2945 75.3449 12.9654C75.1512 12.6362 74.9382 12.3845 74.7057 12.2103C74.4346 11.9973 74.1246 11.8618 73.7954 11.8037V11.7263C74.1053 11.6682 74.3764 11.5327 74.6089 11.3391C74.8219 11.1648 75.0156 10.9325 75.1899 10.6227C75.3643 10.313 75.4418 9.88702 75.4418 9.34492V7.31205C75.4418 6.34402 75.8872 5.86 76.7976 5.86H77.3787V4.98877H76.7976C76.0616 4.98877 75.4999 5.18238 75.0931 5.58895C74.6864 5.99553 74.4733 6.57634 74.4733 7.31205V9.34492C74.4733 9.98382 74.299 10.4678 73.9503 10.8357C73.5823 11.2035 73.1174 11.3778 72.5364 11.3778H67.694V5.18238H66.7256V18.5412H67.694Z" fill="white"/>
<path d="M82.5055 14.9595H90.6406L91.5122 18.5412H92.4806L89.2847 5.18238H83.8613L80.6654 18.5412H81.6339L82.5055 14.9595ZM82.6992 14.0883L84.6361 6.05361H88.5099L90.4469 14.0883H82.6992Z" fill="white"/>
<path d="M107.2 9.82894C107.2 9.17067 107.084 8.55113 106.832 7.98967C106.58 7.42821 106.251 6.9442 105.805 6.51826C105.36 6.11169 104.837 5.78256 104.217 5.53087C103.597 5.29854 102.919 5.18238 102.164 5.18238H96.7404V18.5412H97.7088V14.4755H102.164C102.919 14.4755 103.597 14.3593 104.217 14.1076C104.837 13.8753 105.36 13.5462 105.805 13.1202C106.251 12.7137 106.58 12.2103 106.832 11.6488C107.084 11.0874 107.2 10.4872 107.2 9.82894ZM106.231 9.82894C106.231 10.3517 106.134 10.8551 105.941 11.3197C105.747 11.7844 105.476 12.1909 105.108 12.5201C104.74 12.8492 104.314 13.1202 103.83 13.3139C103.326 13.5075 102.764 13.6043 102.164 13.6043H97.7088V6.05361H102.164C102.764 6.05361 103.326 6.15041 103.83 6.34402C104.314 6.53762 104.74 6.80867 105.108 7.1378C105.476 7.4863 105.747 7.89287 105.941 8.33817C106.134 8.80282 106.231 9.3062 106.231 9.82894Z" fill="white"/>
<path d="M110.486 6.05361H115.329V18.5412H116.297V6.05361H121.14V5.18238H110.486V6.05361Z" fill="white"/>
<path d="M124.728 14.9595H132.863L133.735 18.5412H134.703L131.507 5.18238H126.084L122.888 18.5412H123.857L124.728 14.9595ZM124.922 14.0883L126.859 6.05361H130.733L132.67 14.0883H124.922Z" fill="white"/>
<path d="M75.926 26.1564L67.7909 37.8696H67.694V26.1564H66.7256V39.5153H67.7909L75.926 27.8021H76.0228V39.5153H76.9913V26.1564H75.926Z" fill="white"/>
<path d="M82.4139 26.1564V39.5153H83.3824V33.2231H91.5175V39.5153H92.4859V26.1564H91.5175V32.3518H83.3824V26.1564H82.4139Z" fill="white"/>
<path d="M97.9131 26.1564V39.5153H98.8816V33.2231H107.017V39.5153H107.985V26.1564H107.017V32.3518H98.8816V26.1564H97.9131Z" fill="white"/>
<path d="M125.615 32.8359C125.615 33.7071 125.441 34.5396 125.111 35.314C124.782 36.0884 124.337 36.7661 123.775 37.3469C123.213 37.9277 122.574 38.3924 121.857 38.7215C121.141 39.0506 120.385 39.2249 119.61 39.2249C118.836 39.2249 118.08 39.0506 117.364 38.7215C116.647 38.3924 116.008 37.9277 115.446 37.3469C114.884 36.7661 114.439 36.0884 114.11 35.314C113.78 34.5396 113.606 33.7071 113.606 32.8359C113.606 31.9646 113.78 31.1515 114.11 30.3771C114.439 29.6026 114.884 28.925 115.446 28.3442C116.008 27.7634 116.647 27.2987 117.364 26.9502C118.08 26.6211 118.836 26.4468 119.61 26.4468C120.385 26.4468 121.141 26.6211 121.857 26.9502C122.574 27.2987 123.213 27.7634 123.775 28.3442C124.337 28.925 124.782 29.6026 125.111 30.3771C125.441 31.1515 125.615 31.9646 125.615 32.8359ZM112.638 32.8359C112.638 33.8232 112.831 34.7719 113.219 35.6432C113.587 36.5144 114.11 37.2888 114.749 37.9471C115.388 38.6053 116.124 39.1281 116.976 39.5153C117.809 39.9025 118.7 40.0961 119.61 40.0961C120.521 40.0961 121.412 39.9025 122.264 39.5153C123.097 39.1281 123.852 38.6053 124.492 37.9471C125.131 37.2888 125.634 36.5144 126.022 35.6432C126.39 34.7719 126.583 33.8232 126.583 32.8359C126.583 31.8485 126.39 30.8998 126.022 30.0286C125.634 29.1573 125.131 28.3829 124.492 27.7246C123.852 27.0664 123.097 26.5436 122.264 26.1564C121.412 25.7692 120.521 25.5756 119.61 25.5756C118.7 25.5756 117.809 25.7692 116.976 26.1564C116.124 26.5436 115.388 27.0664 114.749 27.7246C114.11 28.3829 113.587 29.1573 113.219 30.0286C112.831 30.8998 112.638 31.8485 112.638 32.8359Z" fill="white"/>
<path d="M132.207 27.0277H136.855C137.262 27.0277 137.649 27.0857 137.979 27.2019C138.308 27.3374 138.598 27.5117 138.831 27.7246C139.063 27.9376 139.238 28.2087 139.373 28.4991C139.509 28.7895 139.567 29.1186 139.567 29.4477C139.567 30.1834 139.315 30.7836 138.831 31.2483C138.347 31.7323 137.688 31.9646 136.855 31.9646H132.207V27.0277ZM137.824 38.6441H132.207V32.8359H137.824C138.308 32.8359 138.734 32.9133 139.141 33.0488C139.528 33.2037 139.857 33.4167 140.148 33.6684C140.438 33.9201 140.652 34.2298 140.806 34.5783C140.942 34.9462 141.02 35.3334 141.02 35.74C141.02 36.1465 140.942 36.5337 140.806 36.8822C140.652 37.2501 140.438 37.5599 140.148 37.8116C139.857 38.0632 139.528 38.2762 139.141 38.4117C138.734 38.5666 138.308 38.6441 137.824 38.6441ZM136.855 26.1564H131.238V39.5153H137.824C138.424 39.5153 138.986 39.4185 139.509 39.2055C140.012 39.0119 140.458 38.7409 140.826 38.3924C141.194 38.0439 141.465 37.6373 141.678 37.1726C141.891 36.7274 141.988 36.2433 141.988 35.74C141.988 35.3527 141.949 35.0043 141.852 34.6945C141.756 34.4041 141.62 34.133 141.465 33.8813C141.31 33.649 141.136 33.436 140.942 33.2618C140.748 33.0875 140.555 32.952 140.342 32.8359C139.857 32.5454 139.296 32.3518 138.695 32.255V32.1582C139.025 32.0421 139.334 31.8678 139.606 31.6355C139.838 31.4225 140.051 31.1515 140.245 30.803C140.438 30.4739 140.535 30.0092 140.535 29.4477C140.535 29.0024 140.438 28.5959 140.264 28.1893C140.09 27.8021 139.838 27.4536 139.509 27.1438C139.179 26.8534 138.773 26.6017 138.327 26.4275C137.882 26.2532 137.378 26.1564 136.855 26.1564Z" fill="white"/>
<path d="M147.113 35.9336H155.248L156.119 39.5153H157.088L153.892 26.1564H148.468L145.272 39.5153H146.241L147.113 35.9336ZM147.306 35.0623L149.243 27.0277H153.117L155.054 35.0623H147.306Z" fill="white"/>
<path d="M161.347 39.5153H171.613V42.0322H172.582V38.6441H171.032V26.1564H170.064V38.6441H162.316V26.1564H161.347V39.5153Z" fill="white"/>
<path d="M185.858 26.1564L177.723 37.8696H177.626V26.1564H176.657V39.5153H177.723L185.858 27.8021H185.955V39.5153H186.923V26.1564H185.858Z" fill="white"/>
<path d="M204.548 32.8359C204.548 33.7071 204.374 34.5396 204.045 35.314C203.716 36.0884 203.27 36.7661 202.708 37.3469C202.147 37.9277 201.507 38.3924 200.791 38.7215C200.074 39.0506 199.319 39.2249 198.544 39.2249C197.769 39.2249 197.014 39.0506 196.297 38.7215C195.58 38.3924 194.941 37.9277 194.38 37.3469C193.818 36.7661 193.372 36.0884 193.043 35.314C192.714 34.5396 192.539 33.7071 192.539 32.8359C192.539 31.9646 192.714 31.1515 193.043 30.3771C193.372 29.6026 193.818 28.925 194.38 28.3442C194.941 27.7634 195.58 27.2987 196.297 26.9502C197.014 26.6211 197.769 26.4468 198.544 26.4468C199.319 26.4468 200.074 26.6211 200.791 26.9502C201.507 27.2987 202.147 27.7634 202.708 28.3442C203.27 28.925 203.716 29.6026 204.045 30.3771C204.374 31.1515 204.548 31.9646 204.548 32.8359ZM191.571 32.8359C191.571 33.8232 191.765 34.7719 192.152 35.6432C192.52 36.5144 193.043 37.2888 193.682 37.9471C194.321 38.6053 195.057 39.1281 195.91 39.5153C196.743 39.9025 197.634 40.0961 198.544 40.0961C199.454 40.0961 200.345 39.9025 201.198 39.5153C202.03 39.1281 202.786 38.6053 203.425 37.9471C204.064 37.2888 204.568 36.5144 204.955 35.6432C205.323 34.7719 205.517 33.8232 205.517 32.8359C205.517 31.8485 205.323 30.8998 204.955 30.0286C204.568 29.1573 204.064 28.3829 203.425 27.7246C202.786 27.0664 202.03 26.5436 201.198 26.1564C200.345 25.7692 199.454 25.5756 198.544 25.5756C197.634 25.5756 196.743 25.7692 195.91 26.1564C195.057 26.5436 194.321 27.0664 193.682 27.7246C193.043 28.3829 192.52 29.1573 192.152 30.0286C191.765 30.8998 191.571 31.8485 191.571 32.8359Z" fill="white"/>
<path d="M210.172 26.1564V39.5153H211.14V33.2231H219.275V39.5153H220.244V26.1564H219.275V32.3518H211.14V26.1564H210.172Z" fill="white"/>
<path d="M225.671 26.1564V39.5153H226.639V33.2231H234.774V39.5153H235.743V26.1564H234.774V32.3518H226.639V26.1564H225.671Z" fill="white"/>
<path d="M250.661 35.1591C250.661 34.559 250.545 33.9781 250.312 33.4554C250.08 32.9327 249.751 32.468 249.344 32.0614C248.937 31.6742 248.433 31.3644 247.852 31.1321C247.252 30.9192 246.613 30.803 245.915 30.803H242.138V26.1564H241.17V39.5153H245.915C246.613 39.5153 247.252 39.3991 247.852 39.1668C248.433 38.9538 248.937 38.6441 249.344 38.2375C249.751 37.8503 250.08 37.3856 250.312 36.8629C250.545 36.3401 250.661 35.7593 250.661 35.1591ZM249.692 35.1591C249.692 35.6432 249.596 36.1078 249.421 36.5144C249.228 36.9403 248.976 37.3082 248.646 37.6179C248.317 37.9471 247.91 38.1988 247.446 38.373C246.981 38.5473 246.477 38.6441 245.915 38.6441H242.138V31.6742H245.915C246.477 31.6742 246.981 31.771 247.446 31.9453C247.91 32.1195 248.317 32.3712 248.646 32.681C248.976 33.0101 249.228 33.378 249.421 33.8039C249.596 34.2298 249.692 34.6751 249.692 35.1591ZM253.76 39.5153V26.1564H252.791V39.5153H253.76Z" fill="white"/>
<path d="M268.385 26.1564H267.32L263.349 31.771H263.252L259.282 26.1564H258.216L262.768 32.5454L257.829 39.5153H258.894L263.252 33.3199H263.349L267.707 39.5153H268.773L263.833 32.5454L268.385 26.1564Z" fill="white"/>
<path d="M77.185 51.777C77.185 51.1188 77.0688 50.4992 76.817 49.9378C76.5652 49.3763 76.2359 48.8923 75.7904 48.4664C75.3449 48.0598 74.8219 47.7307 74.2021 47.479C73.5823 47.2466 72.9044 47.1305 72.149 47.1305H66.7256V60.4893H67.694V56.4236H72.149C72.9044 56.4236 73.5823 56.3074 74.2021 56.0557C74.8219 55.8234 75.3449 55.4943 75.7904 55.0684C76.2359 54.6618 76.5652 54.1584 76.817 53.5969C77.0688 53.0355 77.185 52.4353 77.185 51.777ZM76.2165 51.777C76.2165 52.2998 76.1197 52.8032 75.926 53.2678C75.7323 53.7325 75.4611 54.139 75.0931 54.4682C74.7251 54.7973 74.299 55.0684 73.8147 55.262C73.3111 55.4556 72.7494 55.5524 72.149 55.5524H67.694V48.0017H72.149C72.7494 48.0017 73.3111 48.0985 73.8147 48.2921C74.299 48.4857 74.7251 48.7568 75.0931 49.0859C75.4611 49.4344 75.7323 49.841 75.926 50.2863C76.1197 50.7509 76.2165 51.2543 76.2165 51.777Z" fill="white"/>
<path d="M91.1248 59.6181H82.796V54.1971H89.3816V53.3259H82.796V48.0017H91.1248V47.1305H81.8276V60.4893H91.1248V59.6181Z" fill="white"/>
<path d="M95.3785 47.1305V60.4893H111.068V47.1305H110.099V59.6181H103.707V47.1305H102.739V59.6181H96.3469V47.1305H95.3785Z" fill="white"/>
<path d="M125.793 59.6181H117.464V54.1971H124.05V53.3259H117.464V48.0017H125.793V47.1305H116.495V60.4893H125.793V59.6181Z" fill="white"/>
<path d="M130.046 47.1305V60.4893H131.015V54.1971H139.15V60.4893H140.118V47.1305H139.15V53.3259H131.015V47.1305H130.046Z" fill="white"/>
<path d="M154.746 47.1305L146.611 58.8437H146.514V47.1305H145.546V60.4893H146.611L154.746 48.7761H154.843V60.4893H155.811V47.1305H154.746Z" fill="white"/>
<path d="M166.367 45.388C167.103 45.388 167.703 45.1557 168.187 44.6717C168.652 44.207 168.885 43.6068 168.885 42.8711H168.11C168.11 43.3551 167.936 43.7811 167.606 44.1102C167.277 44.4394 166.851 44.6136 166.367 44.6136C165.883 44.6136 165.456 44.4394 165.127 44.1102C164.798 43.7811 164.624 43.3551 164.624 42.8711H163.849C163.849 43.6068 164.081 44.207 164.565 44.6717C165.03 45.1557 165.631 45.388 166.367 45.388ZM170.434 47.1305L162.299 58.8437H162.202V47.1305H161.234V60.4893H162.299L170.434 48.7761H170.531V60.4893H171.5V47.1305H170.434Z" fill="white"/>
<mask id="path-3-inside-1_226_4153" fill="white">
<path fill-rule="evenodd" clip-rule="evenodd" d="M37.9264 34.1069C39.4493 31.8435 40.338 29.1179 40.338 26.1847C40.338 18.3371 33.9762 11.9753 26.1286 11.9753C18.281 11.9753 11.9192 18.3371 11.9192 26.1847C11.9192 29.1181 12.8081 31.8439 14.3311 34.1074L26.129 22.3095L37.9264 34.1069Z"/>
</mask>
<path fill-rule="evenodd" clip-rule="evenodd" d="M37.9264 34.1069C39.4493 31.8435 40.338 29.1179 40.338 26.1847C40.338 18.3371 33.9762 11.9753 26.1286 11.9753C18.281 11.9753 11.9192 18.3371 11.9192 26.1847C11.9192 29.1181 12.8081 31.8439 14.3311 34.1074L26.129 22.3095L37.9264 34.1069Z" fill="#E53151"/>
<path d="M37.9264 34.1069L33.6837 38.3495L38.8366 43.5024L42.9045 37.4563L37.9264 34.1069ZM14.3311 34.1074L9.35315 37.457L13.4212 43.5026L18.5738 38.35L14.3311 34.1074ZM26.129 22.3095L30.3716 18.0669L26.129 13.8242L21.8864 18.0669L26.129 22.3095ZM34.338 26.1847C34.338 27.8878 33.8259 29.4531 32.9483 30.7575L42.9045 37.4563C45.0726 34.2339 46.338 30.348 46.338 26.1847H34.338ZM26.1286 17.9753C30.6625 17.9753 34.338 21.6508 34.338 26.1847H46.338C46.338 15.0234 37.2899 5.97534 26.1286 5.97534V17.9753ZM17.9192 26.1847C17.9192 21.6508 21.5947 17.9753 26.1286 17.9753V5.97534C14.9672 5.97534 5.91919 15.0234 5.91919 26.1847H17.9192ZM19.3091 30.7578C18.4313 29.4533 17.9192 27.8879 17.9192 26.1847H5.91919C5.91919 30.3483 7.18477 34.2345 9.35315 37.457L19.3091 30.7578ZM18.5738 38.35L30.3716 26.5521L21.8864 18.0669L10.0885 29.8647L18.5738 38.35ZM21.8864 26.5521L33.6837 38.3495L42.169 29.8642L30.3716 18.0669L21.8864 26.5521Z" fill="#E53151" mask="url(#path-3-inside-1_226_4153)"/>
<rect x="17.1311" y="49.7595" width="12.725" height="12.725" transform="rotate(-45 17.1311 49.7595)" stroke="black" stroke-width="6"/>
<rect x="10.0261" y="42.6547" width="22.7726" height="22.7726" transform="rotate(-45 10.0261 42.6547)" fill="#0054D1" stroke="#0054D1" stroke-width="6"/>
</svg>
