<svg width="27" height="27" viewBox="0 0 27 27" fill="none" xmlns="http://www.w3.org/2000/svg">
<path d="M5.625 7.875H6.75C7.34674 7.875 7.91903 7.63795 8.34099 7.21599C8.76295 6.79403 9 6.22174 9 5.625C9 5.32663 9.11853 5.04048 9.32951 4.82951C9.54048 4.61853 9.82663 4.5 10.125 4.5H16.875C17.1734 4.5 17.4595 4.61853 17.6705 4.82951C17.8815 5.04048 18 5.32663 18 5.625C18 6.22174 18.2371 6.79403 18.659 7.21599C19.081 7.63795 19.6533 7.875 20.25 7.875H21.375C21.9717 7.875 22.544 8.11205 22.966 8.53401C23.3879 8.95597 23.625 9.52826 23.625 10.125V20.25C23.625 20.8467 23.3879 21.419 22.966 21.841C22.544 22.2629 21.9717 22.5 21.375 22.5H5.625C5.02826 22.5 4.45597 22.2629 4.03401 21.841C3.61205 21.419 3.375 20.8467 3.375 20.25V10.125C3.375 9.52826 3.61205 8.95597 4.03401 8.53401C4.45597 8.11205 5.02826 7.875 5.625 7.875Z" stroke="black" stroke-linecap="round" stroke-linejoin="round"/>
<path d="M13.5 18C15.364 18 16.875 16.489 16.875 14.625C16.875 12.761 15.364 11.25 13.5 11.25C11.636 11.25 10.125 12.761 10.125 14.625C10.125 16.489 11.636 18 13.5 18Z" stroke="black" stroke-linecap="round" stroke-linejoin="round"/>
</svg>
